<svg width="450" height="94" viewBox="0 0 450 94" fill="none" xmlns="http://www.w3.org/2000/svg">
<path d="M58.3818 60.656H19.6187V87.3641H58.3818V60.656Z" fill="white"/>
<path d="M58.3811 29.2563L26.9844 60.653H31.6576L58.3811 33.9296V29.2563Z" fill="white"/>
<path d="M19.6187 7V9.90232L22.521 7H19.6187Z" fill="white"/>
<path d="M58.3818 13.4288L19.6187 52.192V56.8621L58.3818 18.099V13.4288Z" fill="white"/>
<path d="M58.3812 37.1731L34.9014 60.653H39.5715L58.3812 41.8432V37.1731Z" fill="white"/>
<path d="M58.3812 45.0867L42.812 60.6528H47.4852L58.3812 49.7568V45.0867Z" fill="white"/>
<path d="M58.3819 57.6706V53.0005L50.7295 60.6529H55.3996L58.3819 57.6706Z" fill="white"/>
<path d="M58.3818 26.0127V21.3425L19.6187 60.1057V60.653H23.7415L58.3818 26.0127Z" fill="white"/>
<path d="M25.7646 7L19.6187 13.1459V17.2903L29.909 7H25.7646Z" fill="white"/>
<path d="M58.3818 7H56.8938L19.6187 44.2782V48.9483L58.3818 10.1852V7Z" fill="white"/>
<path d="M33.1526 7L19.6187 20.5339V25.2071L37.8227 7H33.1526Z" fill="white"/>
<path d="M41.0663 7L19.6187 28.4507V33.1209L45.7395 7H41.0663Z" fill="white"/>
<path d="M48.9831 7L19.6187 36.3645V41.0346L53.6502 7H48.9831Z" fill="white"/>
<path d="M77.9997 7H77.3479L58.3813 25.9665V29.2101L77.9997 9.5918V7Z" fill="white"/>
<path d="M61.5173 7L58.3813 10.136V13.3796L64.7609 7H61.5173Z" fill="white"/>
<path d="M58.3813 41.797V45.0406L77.9997 25.4223V22.1787L58.3813 41.797Z" fill="white"/>
<path d="M66.5102 60.653L77.9996 49.1667V45.9231L63.2666 60.653H66.5102Z" fill="white"/>
<path d="M58.3813 49.7077V52.9512L77.9997 33.336V30.0924L58.3813 49.7077Z" fill="white"/>
<path d="M74.4238 60.653L77.9994 57.0773V53.8337L71.1802 60.653H74.4238Z" fill="white"/>
<path d="M58.3813 57.6245V60.8681L77.9997 41.2498V38.0062L58.3813 57.6245Z" fill="white"/>
<path d="M0.0522461 7V8.74938L1.80163 7H0.0522461Z" fill="white"/>
<path d="M0.0522461 52.4656V55.7092L19.6183 36.1462V32.9026L0.0522461 52.4656Z" fill="white"/>
<path d="M0.0522461 44.5549V47.7955L19.6183 28.2325V24.9889L0.0522461 44.5549Z" fill="white"/>
<path d="M10.9423 60.6529L19.6185 51.9767V48.7332L7.69873 60.6529H10.9423Z" fill="white"/>
<path d="M18.853 60.6529L19.6185 59.8904V56.6469L15.6094 60.6529H18.853Z" fill="white"/>
<path d="M0.0522461 36.6381V39.8816L19.6183 20.3156V17.0751L0.0522461 36.6381Z" fill="white"/>
<path d="M0.0522461 28.7244V31.9679L19.6183 12.405V9.16138L0.0522461 28.7244Z" fill="white"/>
<path d="M0.0522461 24.0542L17.1064 7H13.8629L0.0522461 20.8106V24.0542Z" fill="white"/>
<path d="M0.0522461 16.1374L9.1927 7H5.94912L0.0522461 12.8938V16.1374Z" fill="white"/>
<path d="M0.0522461 60.3823V60.6529H3.02528L19.6183 44.0599V40.8163L0.0522461 60.3823Z" fill="white"/>
<path d="M77.9997 14.262L58.3813 33.8803V37.1239L77.9997 17.5055V14.262Z" fill="white"/>
<path d="M58.3813 21.2964L72.6777 7H69.4341L58.3813 18.0528V21.2964Z" fill="white"/>
<path d="M142.712 40H150.799V17.908H159.552V10.8218H134V17.908H142.712V40ZM163.102 40H186.778V33.1223H171.105V28.4955H185.11V22.1179H171.105V17.6579H186.569V10.8218H163.102V40ZM188.652 40H197.114L199.198 34.7479H210.494L212.578 40H221.248L208.827 10.6134H201.032L188.652 40ZM201.574 28.4538L204.867 20.2005L208.118 28.4538H201.574ZM224.08 40H231.999V23.2851L239.419 34.6646H239.586L247.047 23.2434V40H255.092V10.8218H246.547L239.586 22.1179L232.625 10.8218H224.08V40ZM271.73 40.5002C278.816 40.5002 283.526 36.9571 283.526 30.9964V30.9131C283.526 25.4526 279.358 23.2851 272.689 21.8262C268.604 20.9091 267.604 20.3256 267.604 18.9917V18.9083C267.604 17.8246 268.562 17.0326 270.521 17.0326C273.106 17.0326 276.024 17.9913 278.691 19.9087L282.734 14.1982C279.567 11.6555 275.69 10.3216 270.73 10.3216C263.727 10.3216 259.434 14.2398 259.434 19.6586V19.742C259.434 25.7027 264.227 27.4534 270.438 28.8706C274.44 29.8293 275.398 30.4546 275.398 31.7051V31.7884C275.398 33.0389 274.231 33.7892 272.022 33.7892C268.646 33.7892 265.478 32.5804 262.56 30.2878L258.058 35.665C261.685 38.8746 266.561 40.5002 271.73 40.5002ZM313.108 40.5836C319.528 40.5836 323.237 37.7908 325.989 33.9976L319.903 29.6626C318.152 31.7884 316.36 33.2057 313.317 33.2057C309.232 33.2057 306.356 29.7876 306.356 25.4109V25.3275C306.356 21.0759 309.232 17.5745 313.317 17.5745C316.11 17.5745 318.027 18.95 319.694 20.9925L325.78 16.2823C323.196 12.7392 319.361 10.2383 313.4 10.2383C304.563 10.2383 298.061 16.9076 298.061 25.4109V25.4943C298.061 34.206 304.772 40.5836 313.108 40.5836ZM329.508 40H337.428V23.2851L344.848 34.6646H345.015L352.476 23.2434V40H360.521V10.8218H351.976L345.015 22.1179L338.054 10.8218H329.508V40ZM365.696 40H373.783V29.5792H387.58V22.8682H373.783V17.908H389.039V10.8218H365.696V40ZM146.221 87.39C151.642 87.39 155.542 84.348 155.542 79.668V79.59C155.542 75.417 152.734 73.194 146.65 71.868C140.644 70.581 139.24 69.138 139.24 66.564V66.486C139.24 64.029 141.502 62.079 145.051 62.079C147.859 62.079 150.394 62.976 152.929 65.043L154.723 62.664C151.954 60.441 149.107 59.31 145.129 59.31C139.942 59.31 136.159 62.469 136.159 66.759V66.837C136.159 71.322 139.045 73.35 145.324 74.715C151.057 75.924 152.422 77.367 152.422 79.902V79.98C152.422 82.671 150.004 84.621 146.338 84.621C142.555 84.621 139.825 83.334 136.978 80.76L135.067 83.022C138.343 85.947 141.892 87.39 146.221 87.39ZM168.71 87.429C172.181 87.429 174.248 85.674 175.613 83.49V87H178.577V66.837H175.613V78.381C175.613 82.164 173 84.699 169.568 84.699C166.019 84.699 163.991 82.359 163.991 78.615V66.837H160.988V79.356C160.988 84.153 163.835 87.429 168.71 87.429ZM192.002 87.39C196.019 87.39 199.178 85.167 199.178 81.345V81.267C199.178 77.64 195.824 76.431 192.704 75.495C190.013 74.676 187.517 73.935 187.517 72.024V71.946C187.517 70.269 189.038 69.021 191.417 69.021C193.367 69.021 195.512 69.762 197.384 70.971L198.749 68.709C196.682 67.344 193.952 66.486 191.495 66.486C187.517 66.486 184.631 68.787 184.631 72.258V72.336C184.631 76.041 188.141 77.133 191.3 78.03C193.952 78.771 196.331 79.551 196.331 81.579V81.657C196.331 83.607 194.576 84.855 192.158 84.855C189.779 84.855 187.361 83.919 185.177 82.281L183.656 84.426C185.918 86.259 189.116 87.39 192.002 87.39ZM211.122 87.351C212.565 87.351 213.696 87.039 214.749 86.493V83.919C213.696 84.426 212.838 84.621 211.824 84.621C209.796 84.621 208.431 83.724 208.431 81.267V69.489H214.827V66.837H208.431V60.753H205.428V66.837H202.62V69.489H205.428V81.657C205.428 85.752 207.885 87.351 211.122 87.351ZM226.149 87.429C229.698 87.429 232.038 85.791 233.442 83.958V87H236.328V74.676C236.328 72.102 235.626 70.152 234.261 68.787C232.779 67.305 230.595 66.564 227.748 66.564C224.823 66.564 222.639 67.227 220.416 68.241L221.313 70.698C223.185 69.84 225.057 69.216 227.436 69.216C231.219 69.216 233.442 71.088 233.442 74.715V75.417C231.648 74.91 229.815 74.559 227.241 74.559C222.132 74.559 218.622 76.821 218.622 81.072V81.15C218.622 85.284 222.405 87.429 226.149 87.429ZM226.734 85.05C224.004 85.05 221.664 83.568 221.664 81.033V80.955C221.664 78.42 223.77 76.782 227.553 76.782C230.01 76.782 231.999 77.211 233.481 77.64V79.59C233.481 82.788 230.439 85.05 226.734 85.05ZM242.806 62.43H246.238V59.115H242.806V62.43ZM243.001 87H246.004V66.837H243.001V87ZM252.973 87H255.976V75.456C255.976 71.673 258.55 69.138 262.021 69.138C265.57 69.138 267.598 71.478 267.598 75.222V87H270.601V74.481C270.601 69.684 267.754 66.408 262.879 66.408C259.408 66.408 257.302 68.163 255.976 70.347V66.837H252.973V87ZM283.011 87.429C286.56 87.429 288.9 85.791 290.304 83.958V87H293.19V74.676C293.19 72.102 292.488 70.152 291.123 68.787C289.641 67.305 287.457 66.564 284.61 66.564C281.685 66.564 279.501 67.227 277.278 68.241L278.175 70.698C280.047 69.84 281.919 69.216 284.298 69.216C288.081 69.216 290.304 71.088 290.304 74.715V75.417C288.51 74.91 286.677 74.559 284.103 74.559C278.994 74.559 275.484 76.821 275.484 81.072V81.15C275.484 85.284 279.267 87.429 283.011 87.429ZM283.596 85.05C280.866 85.05 278.526 83.568 278.526 81.033V80.955C278.526 78.42 280.632 76.782 284.415 76.782C286.872 76.782 288.861 77.211 290.343 77.64V79.59C290.343 82.788 287.301 85.05 283.596 85.05ZM310.315 87.429C315.19 87.429 319.948 83.529 319.948 76.938V76.86C319.948 70.23 315.151 66.408 310.315 66.408C306.61 66.408 304.231 68.475 302.593 70.893V58.53H299.59V87H302.593V83.139C304.153 85.401 306.571 87.429 310.315 87.429ZM309.769 84.738C306.025 84.738 302.476 81.618 302.476 76.938V76.86C302.476 72.258 306.025 69.099 309.769 69.099C313.591 69.099 316.867 72.141 316.867 76.899V76.977C316.867 81.852 313.669 84.738 309.769 84.738ZM325.567 62.43H328.999V59.115H325.567V62.43ZM325.762 87H328.765V66.837H325.762V87ZM336.007 87H339.01V58.53H336.007V87ZM346.057 62.43H349.489V59.115H346.057V62.43ZM346.252 87H349.255V66.837H346.252V87ZM362.971 87.351C364.414 87.351 365.545 87.039 366.598 86.493V83.919C365.545 84.426 364.687 84.621 363.673 84.621C361.645 84.621 360.28 83.724 360.28 81.267V69.489H366.676V66.837H360.28V60.753H357.277V66.837H354.469V69.489H357.277V81.657C357.277 85.752 359.734 87.351 362.971 87.351ZM380.611 83.646L373.279 66.837H369.964L379.129 86.922C377.92 89.769 376.789 90.705 374.995 90.705C373.708 90.705 372.811 90.471 371.836 89.964L370.822 92.343C372.187 93.006 373.435 93.357 375.112 93.357C378.154 93.357 380.104 91.836 381.82 87.663L390.283 66.837H387.085L380.611 83.646Z" fill="white"/>
</svg>
