<svg width="711" height="107" viewBox="0 0 711 107" fill="none" xmlns="http://www.w3.org/2000/svg">
<path d="M58.3818 53.656H19.6187V80.3641H58.3818V53.656Z" fill="white"/>
<path d="M58.3811 22.2563L26.9844 53.653H31.6576L58.3811 26.9296V22.2563Z" fill="white"/>
<path d="M19.6187 0V2.90232L22.521 0H19.6187Z" fill="white"/>
<path d="M58.3818 6.42883L19.6187 45.192V49.8621L58.3818 11.099V6.42883Z" fill="white"/>
<path d="M58.3812 30.1731L34.9014 53.653H39.5715L58.3812 34.8432V30.1731Z" fill="white"/>
<path d="M58.3812 38.0867L42.812 53.6528H47.4852L58.3812 42.7568V38.0867Z" fill="white"/>
<path d="M58.3819 50.6706V46.0005L50.7295 53.6529H55.3996L58.3819 50.6706Z" fill="white"/>
<path d="M58.3818 19.0127V14.3425L19.6187 53.1057V53.653H23.7415L58.3818 19.0127Z" fill="white"/>
<path d="M25.7646 0L19.6187 6.14591V10.2903L29.909 0H25.7646Z" fill="white"/>
<path d="M58.3818 0H56.8938L19.6187 37.2782V41.9483L58.3818 3.18517V0Z" fill="white"/>
<path d="M33.1526 0L19.6187 13.5339V18.2071L37.8227 0H33.1526Z" fill="white"/>
<path d="M41.0663 0L19.6187 21.4507V26.1209L45.7395 0H41.0663Z" fill="white"/>
<path d="M48.9831 0L19.6187 29.3645V34.0346L53.6502 0H48.9831Z" fill="white"/>
<path d="M77.9997 0H77.3479L58.3813 18.9665V22.2101L77.9997 2.5918V0Z" fill="white"/>
<path d="M61.5173 0L58.3813 3.13598V6.37957L64.7609 0H61.5173Z" fill="white"/>
<path d="M58.3813 34.797V38.0406L77.9997 18.4223V15.1787L58.3813 34.797Z" fill="white"/>
<path d="M66.5102 53.653L77.9996 42.1667V38.9231L63.2666 53.653H66.5102Z" fill="white"/>
<path d="M58.3813 42.7077V45.9512L77.9997 26.336V23.0924L58.3813 42.7077Z" fill="white"/>
<path d="M74.4238 53.653L77.9994 50.0773V46.8337L71.1802 53.653H74.4238Z" fill="white"/>
<path d="M58.3813 50.6245V53.8681L77.9997 34.2498V31.0062L58.3813 50.6245Z" fill="white"/>
<path d="M0.0522461 0V1.74938L1.80163 0H0.0522461Z" fill="white"/>
<path d="M0.0522461 45.4656V48.7092L19.6183 29.1462V25.9026L0.0522461 45.4656Z" fill="white"/>
<path d="M0.0522461 37.5549V40.7955L19.6183 21.2325V17.9889L0.0522461 37.5549Z" fill="white"/>
<path d="M10.9423 53.6529L19.6185 44.9767V41.7332L7.69873 53.6529H10.9423Z" fill="white"/>
<path d="M18.853 53.6529L19.6185 52.8904V49.6469L15.6094 53.6529H18.853Z" fill="white"/>
<path d="M0.0522461 29.6381V32.8816L19.6183 13.3156V10.0751L0.0522461 29.6381Z" fill="white"/>
<path d="M0.0522461 21.7244V24.9679L19.6183 5.40496V2.16138L0.0522461 21.7244Z" fill="white"/>
<path d="M0.0522461 17.0542L17.1064 0H13.8629L0.0522461 13.8106V17.0542Z" fill="white"/>
<path d="M0.0522461 9.13738L9.1927 0H5.94912L0.0522461 5.8938V9.13738Z" fill="white"/>
<path d="M0.0522461 53.3823V53.6529H3.02528L19.6183 37.0599V33.8163L0.0522461 53.3823Z" fill="white"/>
<path d="M77.9997 7.26196L58.3813 26.8803V30.1239L77.9997 10.5055V7.26196Z" fill="white"/>
<path d="M58.3813 14.2964L72.6777 0H69.4341L58.3813 11.0528V14.2964Z" fill="white"/>
<path d="M167.176 59.576C175.336 59.576 180.76 55.496 180.76 48.632V48.536C180.76 42.248 175.96 39.752 168.28 38.072C163.576 37.016 162.424 36.344 162.424 34.808V34.712C162.424 33.464 163.528 32.552 165.784 32.552C168.76 32.552 172.12 33.656 175.192 35.864L179.848 29.288C176.2 26.36 171.736 24.824 166.024 24.824C157.96 24.824 153.016 29.336 153.016 35.576V35.672C153.016 42.536 158.536 44.552 165.688 46.184C170.296 47.288 171.4 48.008 171.4 49.448V49.544C171.4 50.984 170.056 51.848 167.512 51.848C163.624 51.848 159.976 50.456 156.616 47.816L151.432 54.008C155.608 57.704 161.224 59.576 167.176 59.576ZM200.409 59.624C209.961 59.624 216.153 54.824 216.153 44.024V25.4H206.745V44.312C206.745 49.016 204.297 51.224 200.505 51.224C196.761 51.224 194.312 48.92 194.312 44.072V25.4H184.905V44.264C184.905 54.776 190.905 59.624 200.409 59.624ZM234.864 59.576C243.024 59.576 248.448 55.496 248.448 48.632V48.536C248.448 42.248 243.648 39.752 235.968 38.072C231.264 37.016 230.112 36.344 230.112 34.808V34.712C230.112 33.464 231.216 32.552 233.472 32.552C236.448 32.552 239.808 33.656 242.88 35.864L247.536 29.288C243.888 26.36 239.424 24.824 233.712 24.824C225.648 24.824 220.704 29.336 220.704 35.576V35.672C220.704 42.536 226.224 44.552 233.376 46.184C237.984 47.288 239.088 48.008 239.088 49.448V49.544C239.088 50.984 237.744 51.848 235.2 51.848C231.312 51.848 227.664 50.456 224.304 47.816L219.12 54.008C223.296 57.704 228.912 59.576 234.864 59.576ZM260.247 59H269.559V33.56H279.639V25.4H250.215V33.56H260.247V59ZM276.774 59H286.518L288.918 52.952H301.926L304.326 59H314.31L300.006 25.16H291.03L276.774 59ZM291.654 45.704L295.446 36.2L299.19 45.704H291.654ZM317.81 59H327.122V25.4H317.81V59ZM333.273 59H342.489V40.568L356.889 59H365.001V25.4H355.785V43.16L341.961 25.4H333.273V59ZM368.32 59H378.064L380.464 52.952H393.472L395.872 59H405.856L391.552 25.16H382.576L368.32 59ZM383.2 45.704L386.992 36.2L390.736 45.704H383.2ZM409.117 59H426.445C434.461 59 439.165 55.496 439.165 49.736V49.64C439.165 45.08 436.573 42.776 432.493 41.432C435.469 40.136 437.677 37.832 437.677 33.944V33.848C437.677 31.544 436.861 29.768 435.517 28.376C433.549 26.456 430.573 25.4 426.349 25.4H409.117V59ZM428.509 35.864C428.509 37.832 426.877 38.792 424.045 38.792H418.189V32.888H424.285C427.021 32.888 428.509 33.896 428.509 35.768V35.864ZM429.853 48.344V48.44C429.853 50.408 428.269 51.512 425.389 51.512H418.189V45.32H425.293C428.413 45.32 429.853 46.52 429.853 48.344ZM443.429 59H469.013V50.84H452.741V25.4H443.429V59ZM473.054 59H500.318V51.08H482.27V45.752H498.398V38.408H482.27V33.272H500.078V25.4H473.054V59ZM536.643 59.576C542.739 59.576 546.579 57.224 550.083 53.672L547.587 51.224C544.371 54.296 541.347 56.072 536.739 56.072C529.347 56.072 523.731 49.976 523.731 42.2V42.104C523.731 34.376 529.299 28.328 536.739 28.328C541.299 28.328 544.467 30.248 547.299 32.936L549.891 30.152C546.531 26.984 542.883 24.824 536.787 24.824C526.899 24.824 519.795 32.696 519.795 42.2V42.296C519.795 51.944 526.947 59.576 536.643 59.576ZM556.721 59H560.417V31.832L572.657 49.784H572.849L585.089 31.784V59H588.881V25.4H585.041L572.801 43.736L560.561 25.4H556.721V59ZM598.393 59H602.185V44.36H620.377V40.904H602.185V28.904H622.537V25.4H598.393V59Z" fill="white"/>
</svg>
